# xmcd
#
# Track frame offsets: 
#        150
#        17123
#        31611
#        57797
#        71857
#        95104
#        110625
#        137871
#        155417
#        170786
#        191144
#        204968
#        222378
#        251492
#        269092
#        293940
#        318555
#
# Disc length: 4615 seconds
#
# Revision: 0
# Processed by: cddbd v1.5.2PL0 Copyright (c) Steve Scherf et al.
# Submitted via: ExactAudioCopy v0.99pb5
#
DISCID=10120511
DTITLE=Various Artist - American Black Metal Assault
DYEAR=2000
DGENRE=Metal
TTITLE0=Azazel/Symbionic 666
TTITLE1=Summon/Beneath The Cryptic Tombs
TTITLE2=Blood Storm/Shrieks Of Torture
TTITLE3=Maskim/Sacrifice
TTITLE4=Thornspawn/Everlasting Siege Of The Necrosoldiers
TTITLE5=Noctuary/Vengeance Before Valor
TTITLE6=Demoncy/Knighthood Of The Moonlit Realm
TTITLE7=Judas Iscariot/Spill The Blood Of The Lamb
TTITLE8=Weltmacht/Vengeance And Death
TTITLE9=Krieg/Coldwind Flame
TTITLE10=Exile/The Illusion Of Serenity
TTITLE11=Vukodlak/Cryptic Passage
TTITLE12=Fog/By This Axe We Rule
TTITLE13=Khisanth/Conqueror Of The Light World
TTITLE14=Bloodstained Dusk/The Infernal Praise
TTITLE15=Grand Belial's Key/Kingdom Of Poisoned Fruits
TTITLE16=Crucifier/Fire and Brimstone
EXTD=
EXTT0=
EXTT1=
EXTT2=
EXTT3=
EXTT4=
EXTT5=
EXTT6=
EXTT7=
EXTT8=
EXTT9=
EXTT10=
EXTT11=
EXTT12=
EXTT13=
EXTT14=
EXTT15=
EXTT16=
PLAYORDER=
